# xmcd
# 
# Track frame offsets:
#     150
#     16338
#     30836
#     48249
#     70523
#     87051
#     106964
#     127744
#     151072
#     162077
#     177353
#     193730
#     208564
#     224940
#     241663
#     257196
#     272673
#     290295
# 
# Disc length: 4102
# 
# Revision: 4
# Processed by: cddbd v1.5.2PL0 Copyright (c) Steve Scherf et al.
# Submitted via: fre:ac v1.0.31
# 
DISCID=ea100412
DTITLE=Various Artist - Dance Box [CD-3)
DYEAR=0
DGENRE=Dance
TTITLE0=Mike Koglin - The silence
TTITLE1=Gala - Suddenly
TTITLE2=Sash feat. Shannon - Move Mania
TTITLE3=ICT - Lasciati tentare
TTITLE4=Whigfield - Saturday night
TTITLE5=Dominica - Got to let you go
TTITLE6=Rathy Sledge - Another star
TTITLE7=DJ Jazzy Jeff and the Fresh Prince - Ring my bell
TTITLE8=Mike and The Dancing Tubbies - Say ah oh
TTITLE9=NYCC - Fight for your right
TTITLE10=Addams and Gee feat. Antonia Lucas - Joy and pain
TTITLE11=Tomy or zox - My desire
TTITLE12=T-Spoon - A part of my life
TTITLE13=Coolio - C U when I get there
TTITLE14=Aaron Carter - Crush on you
TTITLE15=Mark van Dale with Enrico - Water verve
TTITLE16=CB Milton - Carry on
TTITLE17=Stretch - Torn
EXTD=0\n\n\n
EXTT0=
EXTT1=
EXTT2=
EXTT3=
EXTT4=
EXTT5=
EXTT6=
EXTT7=
EXTT8=
EXTT9=
EXTT10=
EXTT11=
EXTT12=
EXTT13=
EXTT14=
EXTT15=
EXTT16=
EXTT17=
PLAYORDER=
